<?xml version="1.0" encoding="utf-8"?>
<!-- Generator: Adobe Illustrator 19.0.0, SVG Export Plug-In . SVG Version: 6.00 Build 0)  -->
<svg version="1.1" id="Layer_1" xmlns="http://www.w3.org/2000/svg" xmlns:xlink="http://www.w3.org/1999/xlink" x="0px" y="0px"
	 viewBox="0 0 100 100" style="enable-background:new 0 0 100 100;" xml:space="preserve">
<style type="text/css">
	.st0{fill:#FF7A00;}
</style>
<g id="XMLID_1_">
	<path id="XMLID_14_" class="st0" d="M50,14c19.9,0,36,16.1,36,36S69.9,86,50,86S14,69.9,14,50S30.1,14,50,14 M50,0
		C22.4,0,0,22.4,0,50s22.4,50,50,50s50-22.4,50-50S77.6,0,50,0L50,0z"/>
</g>
<g id="XMLID_2_">
	<path id="XMLID_3_" class="st0" d="M50,30.3c10.9,0,19.7,8.8,19.7,19.7S60.9,69.7,50,69.7S30.3,60.9,30.3,50S39.1,30.3,50,30.3
		 M50,22.6c-15.1,0-27.4,12.3-27.4,27.4S34.9,77.4,50,77.4S77.4,65.1,77.4,50S65.1,22.6,50,22.6L50,22.6z"/>
</g>
<g id="XMLID_4_">
	<path id="XMLID_7_" class="st0" d="M50,41.2c4.9,0,8.8,3.9,8.8,8.8s-3.9,8.8-8.8,8.8s-8.8-3.9-8.8-8.8S45.1,41.2,50,41.2 M50,37.7
		c-6.8,0-12.3,5.5-12.3,12.3S43.2,62.3,50,62.3S62.3,56.8,62.3,50S56.8,37.7,50,37.7L50,37.7z"/>
</g>
</svg>
